<svg width="200" height="200" viewBox="0 0 236 236" fill="none" xmlns="http://www.w3.org/2000/svg">
<path d="M0 118C0 149.296 12.4321 179.309 34.5614 201.439C56.6907 223.568 86.7045 236 118 236C149.296 236 179.309 223.568 201.439 201.439C223.568 179.309 236 149.296 236 118C236 86.7045 223.568 56.6907 201.439 34.5614C179.309 12.4321 149.296 0 118 0C86.7045 0 56.6907 12.4321 34.5614 34.5614C12.4321 56.6907 0 86.7045 0 118Z" fill="#F1F2F6"/>
<path d="M16.7656 42.6504L137.891 7.08389L184.283 165.077L63.1576 200.643L16.7656 42.6504Z" fill="white" stroke="#393A4A" stroke-width="2.325" stroke-linecap="round" stroke-linejoin="round"/>
<path d="M40.7109 17.5898H166.953V182.25H40.7109V17.5898Z" fill="white" stroke="#393A4A" stroke-width="2.325" stroke-linecap="round" stroke-linejoin="round"/>
<path d="M57.1797 34.0586H150.488V50.5255H57.1797V34.0586Z" fill="#E7E7ED" stroke="#393A4A" stroke-width="2.325" stroke-linecap="round" stroke-linejoin="round"/>
<path d="M90.1094 77.9648H112.066" stroke="#393A4A" stroke-width="2.325" stroke-linecap="round" stroke-linejoin="round"/>
<path d="M90.1094 88.9453H139.51" stroke="#393A4A" stroke-width="2.325" stroke-linecap="round" stroke-linejoin="round"/>
<path d="M90.1094 99.9219H125.828" stroke="#393A4A" stroke-width="2.325" stroke-linecap="round" stroke-linejoin="round"/>
<path d="M90.1094 132.854H117.553" stroke="#393A4A" stroke-width="2.325" stroke-linecap="round" stroke-linejoin="round"/>
<path d="M90.1094 143.83H144.997" stroke="#393A4A" stroke-width="2.325" stroke-linecap="round" stroke-linejoin="round"/>
<path d="M90.1094 154.811H134.02" stroke="#393A4A" stroke-width="2.325" stroke-linecap="round" stroke-linejoin="round"/>
<path d="M224.11 207.152C225.08 208.097 225.853 209.226 226.384 210.473C226.915 211.72 227.193 213.059 227.201 214.414C227.21 215.769 226.95 217.112 226.436 218.366C225.921 219.62 225.163 220.758 224.205 221.717C223.247 222.675 222.108 223.433 220.855 223.948C219.601 224.463 218.258 224.723 216.903 224.715C215.548 224.706 214.208 224.428 212.962 223.898C211.715 223.367 210.586 222.595 209.64 221.624L182.5 194.484L196.973 180.012L224.11 207.152Z" fill="#E7E7ED"/>
<path d="M224.11 207.152C225.08 208.097 225.853 209.226 226.384 210.473C226.915 211.72 227.193 213.059 227.201 214.414C227.21 215.769 226.95 217.112 226.436 218.366C225.921 219.62 225.163 220.758 224.205 221.717C223.247 222.675 222.108 223.433 220.855 223.948C219.601 224.463 218.258 224.723 216.903 224.715C215.548 224.706 214.208 224.428 212.962 223.898C211.715 223.367 210.586 222.595 209.64 221.624L182.5 194.484L196.973 180.012L224.11 207.152Z" stroke="#393A4A" stroke-width="2.325" stroke-linecap="round" stroke-linejoin="round"/>
<path d="M168.023 172.781L175.259 165.544L193.353 183.633L186.118 190.87L168.023 172.781Z" fill="white" stroke="#393A4A" stroke-width="2.325" stroke-linecap="round" stroke-linejoin="round"/>
<path d="M177.077 109.462C183.518 115.903 187.904 124.108 189.681 133.042C191.458 141.975 190.546 151.235 187.06 159.65C183.575 168.065 177.672 175.257 170.099 180.318C162.526 185.378 153.622 188.079 144.513 188.079C135.405 188.079 126.501 185.378 118.928 180.318C111.355 175.257 105.452 168.065 101.966 159.65C98.4808 151.235 97.5689 141.975 99.3459 133.042C101.123 124.108 105.509 115.903 111.95 109.462C120.587 100.827 132.3 95.9766 144.513 95.9766C156.727 95.9766 168.44 100.827 177.077 109.462Z" fill="white" stroke="#393A4A" stroke-width="2.325" stroke-linecap="round" stroke-linejoin="round"/>
<path d="M168.026 118.51C172.677 123.161 175.844 129.087 177.128 135.539C178.411 141.99 177.752 148.678 175.235 154.755C172.718 160.832 168.455 166.026 162.986 169.68C157.516 173.335 151.086 175.285 144.508 175.285C137.93 175.285 131.5 173.335 126.031 169.68C120.562 166.026 116.299 160.832 113.782 154.755C111.264 148.678 110.606 141.99 111.889 135.539C113.172 129.087 116.34 123.161 120.991 118.51C124.079 115.421 127.745 112.971 131.781 111.3C135.816 109.628 140.141 108.768 144.508 108.768C148.876 108.768 153.201 109.628 157.236 111.3C161.271 112.971 164.938 115.421 168.026 118.51Z" fill="#E7E7ED"/>
<path d="M168.026 118.51C172.677 123.161 175.844 129.087 177.128 135.539C178.411 141.99 177.752 148.678 175.235 154.755C172.718 160.832 168.455 166.026 162.986 169.68C157.516 173.335 151.086 175.285 144.508 175.285C137.93 175.285 131.5 173.335 126.031 169.68C120.562 166.026 116.299 160.832 113.782 154.755C111.264 148.678 110.606 141.99 111.889 135.539C113.172 129.087 116.34 123.161 120.991 118.51C124.079 115.421 127.745 112.971 131.781 111.3C135.816 109.628 140.141 108.768 144.508 108.768C148.876 108.768 153.201 109.628 157.236 111.3C161.271 112.971 164.938 115.421 168.026 118.51Z" stroke="#393A4A" stroke-width="2.325" stroke-linecap="round" stroke-linejoin="round"/>
<path d="M76.0312 221.194C76.0312 222.835 80.8102 224.408 89.3167 225.568C97.8232 226.728 109.36 227.38 121.39 227.38C133.42 227.38 144.958 226.728 153.464 225.568C161.971 224.408 166.75 222.835 166.75 221.194C166.75 219.553 161.971 217.98 153.464 216.82C144.958 215.66 133.42 215.008 121.39 215.008C109.36 215.008 97.8232 215.66 89.3167 216.82C80.8102 217.98 76.0312 219.553 76.0312 221.194Z" fill="#E7E7ED"/>
</svg>
