<svg width="24" height="25" viewBox="0 0 24 25" fill="none" xmlns="http://www.w3.org/2000/svg">
<g clip-path="url(#clip0_503_1081)">
<path d="M23.2709 9.80257C21.7199 7.27657 18.1919 3.03857 11.9999 3.03857C5.80788 3.03857 2.27988 7.27657 0.728883 9.80257C0.249411 10.5781 -0.00456238 11.4718 -0.00456238 12.3836C-0.00456238 13.2953 0.249411 14.1891 0.728883 14.9646C2.27988 17.4906 5.80788 21.7286 11.9999 21.7286C18.1919 21.7286 21.7199 17.4906 23.2709 14.9646C23.7504 14.1891 24.0043 13.2953 24.0043 12.3836C24.0043 11.4718 23.7504 10.5781 23.2709 9.80257ZM21.5659 13.9176C20.2339 16.0836 17.2189 19.7286 11.9999 19.7286C6.78088 19.7286 3.76588 16.0836 2.43388 13.9176C2.14902 13.4566 1.99813 12.9254 1.99813 12.3836C1.99813 11.8417 2.14902 11.3105 2.43388 10.8496C3.76588 8.68357 6.78088 5.03857 11.9999 5.03857C17.2189 5.03857 20.2339 8.67957 21.5659 10.8496C21.8507 11.3105 22.0016 11.8417 22.0016 12.3836C22.0016 12.9254 21.8507 13.4566 21.5659 13.9176Z" fill="#374957"/>
<path d="M11.9998 7.38354C11.0109 7.38354 10.0442 7.67679 9.22194 8.2262C8.39969 8.7756 7.75883 9.5565 7.38039 10.4701C7.00195 11.3838 6.90294 12.3891 7.09586 13.359C7.28879 14.3289 7.76499 15.2198 8.46425 15.9191C9.16352 16.6183 10.0544 17.0945 11.0243 17.2875C11.9942 17.4804 12.9996 17.3814 13.9132 17.0029C14.8268 16.6245 15.6077 15.9836 16.1571 15.1614C16.7065 14.3392 16.9998 13.3725 16.9998 12.3835C16.9982 11.058 16.4709 9.7871 15.5336 8.84976C14.5962 7.91243 13.3254 7.38513 11.9998 7.38354ZM11.9998 15.3835C11.4064 15.3835 10.8264 15.2076 10.3331 14.878C9.83973 14.5483 9.45521 14.0798 9.22815 13.5316C9.00109 12.9834 8.94168 12.3802 9.05743 11.7983C9.17319 11.2163 9.45891 10.6818 9.87847 10.2622C10.298 9.84267 10.8326 9.55694 11.4145 9.44119C11.9965 9.32543 12.5997 9.38484 13.1478 9.61191C13.696 9.83897 14.1646 10.2235 14.4942 10.7168C14.8238 11.2102 14.9998 11.7902 14.9998 12.3835C14.9998 13.1792 14.6837 13.9423 14.1211 14.5049C13.5585 15.0675 12.7954 15.3835 11.9998 15.3835Z" fill="#374957"/>
</g>
<defs>
<clipPath id="clip0_503_1081">
<rect width="24" height="24" fill="white" transform="translate(0 0.383789)"/>
</clipPath>
</defs>
</svg>
