<svg width="108" height="108" viewBox="0 0 108 108" fill="none" xmlns="http://www.w3.org/2000/svg">
<path fill-rule="evenodd" clip-rule="evenodd" d="M67.5 31.5C67.5 38.9558 61.4558 45 54 45C46.5442 45 40.5 38.9558 40.5 31.5C40.5 24.0442 46.5442 18 54 18C61.4558 18 67.5 24.0442 67.5 31.5ZM72 31.5C72 41.4411 63.9411 49.5 54 49.5C44.0589 49.5 36 41.4411 36 31.5C36 21.5589 44.0589 13.5 54 13.5C63.9411 13.5 72 21.5589 72 31.5ZM20.25 81C20.25 67.331 31.331 56.25 45 56.25H63C76.669 56.25 87.75 67.331 87.75 81V87.75C87.75 88.9926 88.7574 90 90 90C91.2426 90 92.25 88.9926 92.25 87.75V81C92.25 64.8457 79.1543 51.75 63 51.75H45C28.8457 51.75 15.75 64.8457 15.75 81V87.75C15.75 88.9926 16.7574 90 18 90C19.2426 90 20.25 88.9926 20.25 87.75V81Z" fill="#F7F5FF"/>
</svg>
