<svg width="94" height="61" viewBox="0 0 94 61" fill="none" xmlns="http://www.w3.org/2000/svg">
<path d="M6.41781 12.9519H20.2337V18.2973H6.41781V12.9519ZM6.91123 28.7826H0.25V-0.000488281H22.0018V5.34495H6.91123V28.7826Z" fill="#696CFF"/>
<path d="M34.871 29.1116C33.0344 29.1116 31.3896 28.7552 29.9368 28.0425C28.5113 27.3298 27.4011 26.247 26.6061 24.7941C25.8112 23.3138 25.4137 21.4361 25.4137 19.1608V6.66075H31.8282V18.2151C31.8282 20.0517 32.212 21.4087 32.9795 22.2859C33.7745 23.1357 34.8847 23.5605 36.3102 23.5605C37.297 23.5605 38.1742 23.3549 38.9418 22.9438C39.7093 22.5052 40.3124 21.8473 40.751 20.9701C41.1896 20.0655 41.4089 18.9415 41.4089 17.5983V6.66075H47.8234V28.7826H41.7378V22.6971L42.848 24.4652C42.1079 26.0003 41.0114 27.1653 39.5585 27.9602C38.1331 28.7278 36.5706 29.1116 34.871 29.1116Z" fill="#696CFF"/>
<path d="M62.8121 29.1116C60.208 29.1116 58.1794 28.4537 56.7266 27.1379C55.2737 25.7947 54.5473 23.8073 54.5473 21.1757V1.76762H60.9618V21.0934C60.9618 22.0254 61.2085 22.7519 61.7019 23.2727C62.1954 23.7661 62.867 24.0128 63.7168 24.0128C64.731 24.0128 65.5945 23.7387 66.3072 23.1905L68.0342 27.7135C67.3763 28.1795 66.5814 28.5359 65.6493 28.7826C64.7447 29.0019 63.799 29.1116 62.8121 29.1116ZM51.1344 12.0884V7.15417H66.4717V12.0884H51.1344Z" fill="#696CFF"/>
<path d="M81.4788 29.1116C79.1213 29.1116 77.0242 28.6181 75.1876 27.6313C73.3784 26.6444 71.9392 25.3012 70.8701 23.6017C69.8285 21.8747 69.3076 19.9147 69.3076 17.7217C69.3076 15.5013 69.8285 13.5413 70.8701 11.8417C71.9392 10.1147 73.3784 8.77151 75.1876 7.81207C77.0242 6.82522 79.1213 6.3318 81.4788 6.3318C83.8088 6.3318 85.8922 6.82522 87.7288 7.81207C89.5654 8.77151 91.0046 10.101 92.0463 11.8006C93.088 13.5002 93.6088 15.4739 93.6088 17.7217C93.6088 19.9147 93.088 21.8747 92.0463 23.6017C91.0046 25.3012 89.5654 26.6444 87.7288 27.6313C85.8922 28.6181 83.8088 29.1116 81.4788 29.1116ZM81.4788 23.8484C82.5479 23.8484 83.5073 23.6017 84.3571 23.1082C85.2069 22.6148 85.8785 21.9158 86.3719 21.0112C86.8653 20.0792 87.112 18.9827 87.112 17.7217C87.112 16.4333 86.8653 15.3368 86.3719 14.4322C85.8785 13.5276 85.2069 12.8286 84.3571 12.3351C83.5073 11.8417 82.5479 11.595 81.4788 11.595C80.4097 11.595 79.4502 11.8417 78.6004 12.3351C77.7507 12.8286 77.0653 13.5276 76.5445 14.4322C76.0511 15.3368 75.8044 16.4333 75.8044 17.7217C75.8044 18.9827 76.0511 20.0792 76.5445 21.0112C77.0653 21.9158 77.7507 22.6148 78.6004 23.1082C79.4502 23.6017 80.4097 23.8484 81.4788 23.8484Z" fill="#696CFF"/>
<path d="M5.85945 46.3631H7.89589L12.3946 59.1371L13.5424 59.3222V60.2293H8.65492V59.3222L10.1915 59.1371L9.32139 56.3971H3.91558L3.04547 59.1371L4.63759 59.3222V60.2293H0.25V59.3222L1.39781 59.1371L5.85945 46.3631ZM7.02577 49.3251L6.56295 47.696L6.11864 49.3622L4.24882 55.3049H8.96964L7.02577 49.3251Z" fill="#696CFF"/>
<path d="M13.9197 55.1567C13.9197 54.1324 14.1172 53.2067 14.5121 52.3798C14.9194 51.5529 15.5118 50.8987 16.2894 50.4174C17.0793 49.9237 18.0234 49.6769 19.1219 49.6769C19.6526 49.6769 20.1092 49.7263 20.4918 49.825C20.8744 49.9237 21.3311 50.0595 21.8618 50.2323L21.7878 53.0833H20.5844L20.1771 51.195C20.1031 50.8494 19.6341 50.6766 18.7701 50.6766C17.9062 50.6766 17.2212 51.0283 16.7152 51.7318C16.2215 52.423 15.9747 53.4104 15.9747 54.6939C15.9747 56.1503 16.2524 57.2611 16.8077 58.0263C17.3755 58.7791 18.1098 59.1556 19.0108 59.1556C19.5292 59.1556 20.0167 59.0753 20.4733 58.9149C20.9423 58.7544 21.3434 58.5631 21.6767 58.341L22.0284 59.0815C21.6952 59.4271 21.2015 59.7418 20.5474 60.0257C19.9056 60.2972 19.2515 60.433 18.585 60.433C17.573 60.433 16.7152 60.2046 16.0117 59.748C15.3205 59.2913 14.796 58.6681 14.4381 57.8782C14.0925 57.0759 13.9197 56.1688 13.9197 55.1567Z" fill="#696CFF"/>
<path d="M23.6334 57.4524C23.6334 56.2922 24.2135 55.4406 25.3736 54.8976C26.5338 54.3422 28.0025 54.046 29.7798 54.0089V53.4906C29.7798 52.9105 29.718 52.4538 29.5946 52.1206C29.4712 51.7874 29.2552 51.5467 28.9467 51.3986C28.6505 51.2382 28.2247 51.1579 27.6693 51.1579C27.0398 51.1579 26.4721 51.2505 25.9661 51.4356C25.4724 51.6084 24.9787 51.8244 24.485 52.0836L24.0222 51.1209C24.1826 50.9851 24.4789 50.8062 24.9108 50.584C25.3428 50.3619 25.8426 50.1644 26.4104 49.9916C26.9781 49.8188 27.5458 49.7324 28.1136 49.7324C28.9899 49.7324 29.681 49.8558 30.187 50.1027C30.7054 50.3372 31.0757 50.7198 31.2978 51.2505C31.52 51.7812 31.6311 52.4909 31.6311 53.3795V59.3222H32.7233V60.1368C32.4765 60.1985 32.1618 60.2602 31.7792 60.3219C31.4089 60.3836 31.0818 60.4145 30.798 60.4145C30.4524 60.4145 30.2179 60.3589 30.0945 60.2478C29.9711 60.1491 29.9093 59.9208 29.9093 59.5629V58.9519C29.5391 59.3222 29.0824 59.6616 28.5394 59.9701C28.0087 60.2787 27.4039 60.433 26.7251 60.433C25.8365 60.433 25.096 60.18 24.5035 59.6739C23.9235 59.1556 23.6334 58.415 23.6334 57.4524ZM27.5212 59.1741C27.8421 59.1741 28.2123 59.0753 28.6319 58.8779C29.0516 58.6804 29.4342 58.4459 29.7798 58.1744V54.9901C28.4345 54.9901 27.4163 55.1999 26.7251 55.6196C26.0463 56.0269 25.7069 56.5637 25.7069 57.2302C25.7069 57.8967 25.8673 58.3904 26.1882 58.7113C26.5215 59.0198 26.9658 59.1741 27.5212 59.1741Z" fill="#696CFF"/>
<path d="M38.0097 60.433C37.2691 60.433 36.5903 60.2478 35.9732 59.8776C35.3561 59.5073 34.8624 58.9396 34.4922 58.1744C34.1343 57.4092 33.9553 56.465 33.9553 55.3419C33.9553 54.2928 34.1713 53.3363 34.6033 52.4724C35.0352 51.6084 35.6523 50.9296 36.4546 50.4359C37.2691 49.9299 38.2257 49.6769 39.3241 49.6769C39.9535 49.6769 40.5274 49.7448 41.0458 49.8805V46.4186L39.1575 46.1964V45.4004L42.4898 45.0671H42.5454L42.9527 45.3633V59.2852H44.0264V60.1368C43.6315 60.2232 43.2859 60.291 42.9897 60.3404C42.7058 60.3898 42.4034 60.4145 42.0825 60.4145C41.7616 60.4145 41.5333 60.3589 41.3976 60.2478C41.2618 60.1368 41.1939 59.9023 41.1939 59.5443V58.9519C40.8483 59.3716 40.3917 59.7233 39.8239 60.0072C39.2686 60.291 38.6638 60.433 38.0097 60.433ZM38.7502 59.1185C39.2315 59.1185 39.682 59.0136 40.1016 58.8038C40.5213 58.5817 40.836 58.3286 41.0458 58.0448V51.269C40.9471 51.1209 40.7126 50.9913 40.3423 50.8802C39.9844 50.7568 39.6018 50.6951 39.1945 50.6951C38.2318 50.6951 37.4604 51.0654 36.8804 51.8059C36.3126 52.5341 36.0288 53.6634 36.0288 55.1938C36.0288 56.5267 36.2818 57.5141 36.7878 58.1559C37.2938 58.7976 37.948 59.1185 38.7502 59.1185Z" fill="#696CFF"/>
<path d="M50.0634 60.433C48.57 60.433 47.4284 59.9455 46.6385 58.9704C45.8609 57.9954 45.4722 56.6933 45.4722 55.0642C45.4722 53.9904 45.6758 53.0463 46.0831 52.2317C46.4904 51.4171 47.0581 50.7877 47.7863 50.3434C48.5268 49.899 49.3661 49.6769 50.3041 49.6769C51.4519 49.6769 52.3405 49.9978 52.9699 50.6396C53.6117 51.269 53.9511 52.1761 53.9882 53.361C53.9882 54.1138 53.945 54.6878 53.8586 55.0827H47.4901C47.5148 56.3046 47.7986 57.2919 48.3417 58.0448C48.8847 58.7853 49.6561 59.1556 50.6558 59.1556C51.1495 59.1556 51.6617 59.0692 52.1924 58.8964C52.7354 58.7113 53.1551 58.4953 53.4513 58.2484L53.803 59.063C53.4451 59.4333 52.9144 59.7542 52.2109 60.0257C51.5074 60.2972 50.7916 60.433 50.0634 60.433ZM51.9517 54.1015C51.9888 53.8423 52.0073 53.577 52.0073 53.3054C51.9949 52.5032 51.8221 51.8738 51.4889 51.4171C51.168 50.9481 50.6558 50.7136 49.9523 50.7136C49.2365 50.7136 48.6626 50.9728 48.2306 51.4912C47.811 52.0095 47.5703 52.8796 47.5086 54.1015H51.9517Z" fill="#696CFF"/>
<path d="M55.5608 59.3222L56.69 59.1556V51.3801L55.3571 51.0469V50.0471L58.0045 49.7139L58.3377 49.9546L58.4488 50.6951L58.4303 51.2875C58.8622 50.8926 59.4485 50.5347 60.189 50.2138C60.9419 49.8805 61.6145 49.7139 62.2069 49.7139C62.8734 49.7139 63.4103 49.825 63.8176 50.0471C64.2249 50.2693 64.5334 50.6149 64.7432 51.0839C65.1382 50.7506 65.6874 50.4421 66.3909 50.1582C67.1067 49.862 67.7732 49.7139 68.3903 49.7139C69.1555 49.7139 69.7541 49.862 70.1861 50.1582C70.618 50.4421 70.9204 50.8926 71.0932 51.5097C71.2783 52.1144 71.3709 52.929 71.3709 53.9534V59.1556L72.7038 59.3222V60.2293H68.2977V59.3222L69.4455 59.1556V54.0089C69.4455 53.2931 69.39 52.7254 69.2789 52.3057C69.1802 51.8738 68.9827 51.5529 68.6865 51.3431C68.4026 51.1332 67.9892 51.0283 67.4461 51.0283C67.0388 51.0283 66.6069 51.1209 66.1502 51.306C65.6936 51.4788 65.3048 51.6886 64.9839 51.9355C65.095 52.4168 65.1505 53.1018 65.1505 53.9904V59.1556L66.4649 59.3222V60.2293H61.9848V59.3222L63.2066 59.1556V53.9719C63.2066 53.2314 63.1573 52.6575 63.0585 52.2502C62.9721 51.8429 62.7994 51.5405 62.5402 51.3431C62.281 51.1332 61.886 51.0283 61.3553 51.0283C60.911 51.0283 60.4359 51.1394 59.9298 51.3616C59.4362 51.5837 59.0042 51.8429 58.6339 52.1391V59.1556L59.8743 59.3222V60.2293H55.5608V59.3222Z" fill="#696CFF"/>
<path d="M76.1865 48.1033C75.7915 48.1033 75.4953 47.9922 75.2978 47.77C75.1004 47.5479 75.0016 47.264 75.0016 46.9184C75.0016 46.5235 75.1189 46.1964 75.3534 45.9373C75.6002 45.6781 75.9334 45.5485 76.3531 45.5485C76.7727 45.5485 77.0813 45.6596 77.2787 45.8817C77.4762 46.1039 77.5749 46.3877 77.5749 46.7333C77.5749 47.1529 77.4515 47.4862 77.2047 47.733C76.9702 47.9799 76.6369 48.1033 76.205 48.1033H76.1865ZM75.4459 51.3801L74.0389 51.0469V50.0657L76.9085 49.7139H76.9455L77.3713 50.0471V59.1741L78.8523 59.3222V60.2293H73.9464V59.3222L75.4459 59.1556V51.3801Z" fill="#696CFF"/>
<path d="M80.1669 57.4524C80.1669 56.2922 80.747 55.4406 81.9071 54.8976C83.0673 54.3422 84.536 54.046 86.3132 54.0089V53.4906C86.3132 52.9105 86.2515 52.4538 86.1281 52.1206C86.0047 51.7874 85.7887 51.5467 85.4801 51.3986C85.1839 51.2382 84.7581 51.1579 84.2028 51.1579C83.5733 51.1579 83.0056 51.2505 82.4995 51.4356C82.0059 51.6084 81.5122 51.8244 81.0185 52.0836L80.5557 51.1209C80.7161 50.9851 81.0123 50.8062 81.4443 50.584C81.8763 50.3619 82.3761 50.1644 82.9439 49.9916C83.5116 49.8188 84.0793 49.7324 84.6471 49.7324C85.5233 49.7324 86.2145 49.8558 86.7205 50.1027C87.2389 50.3372 87.6092 50.7198 87.8313 51.2505C88.0535 51.7812 88.1645 52.4909 88.1645 53.3795V59.3222H89.2568V60.1368C89.01 60.1985 88.6953 60.2602 88.3126 60.3219C87.9424 60.3836 87.6153 60.4145 87.3315 60.4145C86.9859 60.4145 86.7514 60.3589 86.628 60.2478C86.5045 60.1491 86.4428 59.9208 86.4428 59.5629V58.9519C86.0726 59.3222 85.6159 59.6616 85.0729 59.9701C84.5422 60.2787 83.9374 60.433 83.2586 60.433C82.37 60.433 81.6294 60.18 81.037 59.6739C80.4569 59.1556 80.1669 58.415 80.1669 57.4524ZM84.0546 59.1741C84.3755 59.1741 84.7458 59.0753 85.1654 58.8779C85.5851 58.6804 85.9677 58.4459 86.3132 58.1744V54.9901C84.968 54.9901 83.9497 55.1999 83.2586 55.6196C82.5798 56.0269 82.2404 56.5637 82.2404 57.2302C82.2404 57.8967 82.4008 58.3904 82.7217 58.7113C83.0549 59.0198 83.4993 59.1741 84.0546 59.1741Z" fill="#696CFF"/>
</svg>
